# xmcd
#
# Track frame offsets: 
#        150
#        15777
#        28659
#        41551
#        52010
#        67295
#        80979
#        93984
#        110136
#        124355
#
# Disc length: 2327 seconds
#
# Revision: 3
# Processed by: cddbd v1.4PL0 Copyright (c) Steve Scherf et al.
# Submitted via: ExactAudioCopy v0.90b4
#
DISCID=8d09150a
DTITLE=Canned Heat - The Best of Canned Heat
DYEAR=1972
DGENRE=Rock and Roll
TTITLE0=On the Road Again
TTITLE1=Same All Over
TTITLE2=Let's Work Together
TTITLE3=Bullfrog Blues
TTITLE4=Time Was
TTITLE5=Boogie Music
TTITLE6=Going Up the Country
TTITLE7=Amphetamine Annie
TTITLE8=Rollin' and Tumblin'
TTITLE9=Fried Hockey Boogie
EXTD=
EXTT0=
EXTT1=
EXTT2=
EXTT3=
EXTT4=
EXTT5=
EXTT6=
EXTT7=
EXTT8=
EXTT9=
PLAYORDER=
